<svg width="10" height="12" viewBox="0 0 10 12" fill="none" xmlns="http://www.w3.org/2000/svg">
<path d="M8.00065 1.73341H8.33399C8.48126 1.73341 8.60065 1.85281 8.60065 2.00008V2.33341H9.66732V2.00008C9.66732 1.2637 9.07037 0.666748 8.33399 0.666748H8.00065V1.73341Z" fill="#2676FF"/>
<path d="M7.00065 1.73341V0.666748H5.66732V1.73341H7.00065Z" fill="#2676FF"/>
<path d="M4.66732 1.73341V0.666768H4.32654C3.59359 0.670775 3.00065 1.26618 3.00065 2.00008V2.33344H4.06732V2.00008C4.06732 1.85281 4.18671 1.73341 4.33399 1.73341H4.66732Z" fill="#2676FF"/>
<path d="M8.00065 7.60008V8.66675H8.33399C9.07037 8.66675 9.66732 8.06979 9.66732 7.33342V7.00008H8.60065V7.33342C8.60065 7.48069 8.48126 7.60008 8.33399 7.60008H8.00065Z" fill="#2676FF"/>
<path d="M8.60065 6.23348H9.66732V5.06681H8.60065V6.23348Z" fill="#2676FF"/>
<path d="M8.60065 4.36678H9.66732V3.20011H8.60065V4.36678Z" fill="#2676FF"/>
<path fill-rule="evenodd" clip-rule="evenodd" d="M5.66732 4.40008H1.66732C1.52004 4.40008 1.40065 4.51947 1.40065 4.66675V10.0001C1.40065 10.1474 1.52004 10.2667 1.66732 10.2667H5.66732C5.8146 10.2667 5.93399 10.1474 5.93399 10.0001V4.66675C5.93399 4.51947 5.8146 4.40008 5.66732 4.40008ZM1.66732 3.33341C0.930938 3.33341 0.333984 3.93037 0.333984 4.66675V10.0001C0.333984 10.7365 0.930937 11.3334 1.66732 11.3334H5.66732C6.4037 11.3334 7.00065 10.7365 7.00065 10.0001V4.66675C7.00065 3.93037 6.4037 3.33341 5.66732 3.33341H1.66732Z" fill="#2676FF"/>
</svg>
