<svg width="24" height="24" viewBox="0 0 24 24" fill="none" xmlns="http://www.w3.org/2000/svg">
<path d="M16.5 5.6H17C17.2209 5.6 17.4 5.77909 17.4 6V6.5H19V6C19 4.89543 18.1046 4 17 4H16.5V5.6Z" fill="#DCE0E8"/>
<path d="M15 5.6V4H13V5.6H15Z" fill="#DCE0E8"/>
<path d="M11.5 5.6V4.00003H10.9888C9.8894 4.00604 9 4.89916 9 6V6.50003H10.6V6C10.6 5.77909 10.7791 5.6 11 5.6H11.5Z" fill="#DCE0E8"/>
<path d="M16.5 14.4V16H17C18.1046 16 19 15.1046 19 14V13.5H17.4V14C17.4 14.2209 17.2209 14.4 17 14.4H16.5Z" fill="#DCE0E8"/>
<path d="M17.4 12.3501H19V10.6001H17.4V12.3501Z" fill="#DCE0E8"/>
<path d="M17.4 9.55005H19V7.80005H17.4V9.55005Z" fill="#DCE0E8"/>
<path fill-rule="evenodd" clip-rule="evenodd" d="M13 9.6H7C6.77909 9.6 6.6 9.77909 6.6 10V18C6.6 18.2209 6.77909 18.4 7 18.4H13C13.2209 18.4 13.4 18.2209 13.4 18V10C13.4 9.77908 13.2209 9.6 13 9.6ZM7 8C5.89543 8 5 8.89543 5 10V18C5 19.1046 5.89543 20 7 20H13C14.1046 20 15 19.1046 15 18V10C15 8.89543 14.1046 8 13 8H7Z" fill="#DCE0E8"/>
</svg>
