<svg width="16" height="16" viewBox="0 0 16 16" fill="none" xmlns="http://www.w3.org/2000/svg">
<path d="M7.99977 5.33328C8.58888 5.33328 9.06644 4.85572 9.06644 4.26662C9.06644 3.67751 8.58888 3.19995 7.99977 3.19995C7.41067 3.19995 6.93311 3.67751 6.93311 4.26662C6.93311 4.85572 7.41067 5.33328 7.99977 5.33328Z" fill="#967C1D"/>
<path fill-rule="evenodd" clip-rule="evenodd" d="M8 1.06667C4.17083 1.06667 1.06667 4.17083 1.06667 8C1.06667 11.8292 4.17083 14.9333 8 14.9333C11.8292 14.9333 14.9333 11.8292 14.9333 8C14.9333 4.17083 11.8292 1.06667 8 1.06667ZM0 8C0 3.58172 3.58172 0 8 0C12.4183 0 16 3.58172 16 8C16 12.4183 12.4183 16 8 16C3.58172 16 0 12.4183 0 8Z" fill="#967C1D"/>
<path fill-rule="evenodd" clip-rule="evenodd" d="M8.00013 7.46655C8.29468 7.46655 8.53346 7.70533 8.53346 7.99989V12.2666C8.53346 12.5611 8.29468 12.7999 8.00013 12.7999C7.70558 12.7999 7.4668 12.5611 7.4668 12.2666L7.4668 7.99989C7.4668 7.70533 7.70558 7.46655 8.00013 7.46655Z" fill="#967C1D"/>
</svg>
