<svg width="12" height="12" viewBox="0 0 12 12" fill="none" xmlns="http://www.w3.org/2000/svg">
<path opacity="0.5" fill-rule="evenodd" clip-rule="evenodd" d="M12 6C12 2.68629 9.31371 0 6 0C2.68629 0 0 2.68629 0 6C0 9.31371 2.68629 12 6 12C9.31371 12 12 9.31371 12 6ZM6.67016 2.625C7.08186 2.625 7.41532 2.96062 7.41532 3.375C7.41532 3.78938 7.08186 4.125 6.67016 4.125C6.25846 4.125 5.925 3.78938 5.925 3.375C5.925 2.96062 6.25846 2.625 6.67016 2.625ZM7.32701 9.01724L7.21345 9.0623C6.62547 9.29582 6.42614 9.37499 6.01628 9.37499C5.66084 9.37499 5.38439 9.28761 5.1873 9.11324C4.79795 8.76824 4.86353 8.27024 4.98536 7.76024L5.35198 6.45411C5.42277 6.18524 5.56621 5.63586 5.36539 5.44311C5.16457 5.25036 4.69699 5.37224 4.425 5.47424L4.52299 5.07186C4.91569 4.91099 5.41196 4.71411 5.83558 4.71411C6.47269 4.71411 6.93879 5.03474 6.93879 5.63999C6.93879 5.69661 6.93208 5.79636 6.91904 5.93961C6.89934 6.15027 6.89064 6.18104 6.67859 6.93098L6.67859 6.931C6.62602 7.11691 6.56096 7.347 6.48014 7.63499C6.43469 7.79436 6.36427 8.13299 6.36427 8.29686C6.36427 8.92799 7.09341 8.77199 7.425 8.61449L7.32701 9.01724Z" fill="#9AA1B1"/>
</svg>
