<svg width="24" height="24" viewBox="0 0 24 24" fill="none" xmlns="http://www.w3.org/2000/svg">
<path fill-rule="evenodd" clip-rule="evenodd" d="M11.3506 11.2287H4.5V4.51587H11.3506V11.2287ZM10.4082 10.3063H5.47402V5.46755H10.4082V10.3063Z" fill="#DCE0E8"/>
<path fill-rule="evenodd" clip-rule="evenodd" d="M11.3398 19.1898H4.5V12.4768H11.3398V19.1898ZM10.4081 18.2686H5.4529V13.4087H10.4081V18.2686Z" fill="#DCE0E8"/>
<path fill-rule="evenodd" clip-rule="evenodd" d="M12.6318 11.2381V4.52515H19.4825V11.2381H12.6318ZM13.5952 10.3063H18.5293V5.46749H13.5952V10.3063Z" fill="#DCE0E8"/>
<path fill-rule="evenodd" clip-rule="evenodd" d="M13.8603 19.1898H12.6426V12.4768H16.3697V15.3569C16.3697 15.5052 16.412 15.5476 16.5602 15.5476C17.0686 15.5371 17.5767 15.5476 18.0851 15.5476C18.138 15.5476 18.1909 15.5476 18.2544 15.5371V12.4875H19.4932V16.744H15.1414V13.6839H13.9449C13.9237 13.6839 13.8813 13.7263 13.8708 13.7579C13.8603 13.8003 13.8708 13.8533 13.8708 13.9061V18.9779C13.8603 19.0521 13.8603 19.1158 13.8603 19.1898Z" fill="#DCE0E8"/>
<path fill-rule="evenodd" clip-rule="evenodd" d="M15.1411 19.1899H16.9835V17.3899H15.1411V19.1899Z" fill="#DCE0E8"/>
<path fill-rule="evenodd" clip-rule="evenodd" d="M17.6396 19.1899H19.4819V17.3899H17.6396V19.1899Z" fill="#DCE0E8"/>
<path fill-rule="evenodd" clip-rule="evenodd" d="M6.99902 8.77119V6.97119H8.86248V8.65474C8.86248 8.73952 8.85194 8.80305 8.74613 8.79244H7.06246C7.0414 8.78173 7.03088 8.78173 6.99902 8.77119Z" fill="#DCE0E8"/>
<path fill-rule="evenodd" clip-rule="evenodd" d="M6.99902 16.7334V14.9229H8.70366C8.7777 14.9229 8.85194 14.9123 8.85194 15.0288V16.7334H6.99902Z" fill="#DCE0E8"/>
<path fill-rule="evenodd" clip-rule="evenodd" d="M15.141 6.97119H16.9834V8.79225H15.2786C15.1939 8.79225 15.1198 8.79225 15.1304 8.66528V7.04514C15.1304 7.02411 15.141 7.00296 15.141 6.97119Z" fill="#DCE0E8"/>
</svg>
