<svg width="16" height="16" viewBox="0 0 16 16" fill="none" xmlns="http://www.w3.org/2000/svg">
<path opacity="0.8" d="M16 8C16 12.4183 12.4183 16 8 16C3.58172 16 0 12.4183 0 8C0 3.58172 3.58172 0 8 0C12.4183 0 16 3.58172 16 8Z" fill="#3075EE"/>
<path fill-rule="evenodd" clip-rule="evenodd" d="M12.3385 5.80469C12.4166 5.88279 12.4166 6.00943 12.3385 6.08753L7.34181 11.0842C7.26371 11.1623 7.13707 11.1623 7.05897 11.0842L4.06232 8.08753C3.98421 8.00943 3.98421 7.88279 4.06232 7.80469L5.00513 6.86188C5.08323 6.78378 5.20987 6.78378 5.28797 6.86188L7.20039 8.7743L11.1128 4.86188C11.1909 4.78378 11.3175 4.78378 11.3957 4.86188L12.3385 5.80469Z" fill="#F4F6FA"/>
</svg>
