<svg width="12" height="12" viewBox="0 0 12 12" fill="none" xmlns="http://www.w3.org/2000/svg">
<path fill-rule="evenodd" clip-rule="evenodd" d="M6.00016 10.6083C8.54527 10.6083 10.6085 8.54503 10.6085 5.99992C10.6085 3.45481 8.54527 1.39159 6.00016 1.39159C3.45505 1.39159 1.39183 3.45481 1.39183 5.99992C1.39183 8.54503 3.45505 10.6083 6.00016 10.6083ZM6.00016 11.5416C9.06074 11.5416 11.5418 9.06049 11.5418 5.99992C11.5418 2.93934 9.06074 0.458252 6.00016 0.458252C2.93958 0.458252 0.458496 2.93934 0.458496 5.99992C0.458496 9.06049 2.93958 11.5416 6.00016 11.5416Z" fill="#DCE0E8"/>
<path fill-rule="evenodd" clip-rule="evenodd" d="M5.5335 8.09992C5.5335 8.22878 5.63797 8.33325 5.76684 8.33325H6.2335C6.36237 8.33325 6.46684 8.22878 6.46684 8.09992V6.46656H8.10016C8.22903 6.46656 8.3335 6.36209 8.3335 6.23322V5.76656C8.3335 5.63769 8.22903 5.53322 8.10016 5.53322L6.46684 5.53322V3.89992C6.46684 3.77105 6.36237 3.66659 6.2335 3.66659H5.76684C5.63797 3.66659 5.5335 3.77105 5.5335 3.89992V5.53322L3.90016 5.53322C3.7713 5.53322 3.66683 5.63769 3.66683 5.76656V6.23322C3.66683 6.36209 3.7713 6.46656 3.90016 6.46656H5.5335V8.09992Z" fill="#DCE0E8"/>
</svg>
