<svg width="243" height="129" viewBox="0 0 243 129" fill="none" xmlns="http://www.w3.org/2000/svg">
<path d="M143 125.25C151.975 125.25 159.25 117.975 159.25 109C159.25 100.025 151.975 92.75 143 92.75C134.025 92.75 126.75 100.025 126.75 109C126.75 117.975 134.025 125.25 143 125.25Z" fill="#5C7CFA"/>
<path d="M142.975 118.946L136.43 109.549L142.975 113.442L149.52 109.549L142.975 118.946ZM142.975 112.409L136.43 108.434L142.975 97.6999L149.52 108.433L142.975 112.409Z" fill="white"/>
<path d="M72 66L96 66" stroke="#BAD3FF" stroke-opacity="0.25" stroke-dasharray="2 2"/>
<path d="M116 20L107 20C102.582 20 99 22.4334 99 25.4351L99 103.565C99 106.567 102.582 109 107 109L116 109" stroke="#BAD3FF" stroke-opacity="0.25" stroke-dasharray="2 2"/>
<path d="M143 36.25C151.975 36.25 159.25 28.9746 159.25 20C159.25 11.0254 151.975 3.75 143 3.75C134.025 3.75 126.75 11.0254 126.75 20C126.75 28.9746 134.025 36.25 143 36.25Z" fill="white"/>
<path d="M142.662 18.6326C145.391 18.6326 147.603 16.4203 147.603 13.6913C147.603 10.9623 145.391 8.75 142.662 8.75C139.933 8.75 137.721 10.9623 137.721 13.6913C137.721 16.4203 139.933 18.6326 142.662 18.6326Z" fill="#88BDF3"/>
<path d="M142.662 30.5742C145.391 30.5742 147.603 28.3619 147.603 25.6328C147.603 22.9038 145.391 20.6915 142.662 20.6915C139.933 20.6915 137.721 22.9038 137.721 25.6328C137.721 28.3619 139.933 30.5742 142.662 30.5742Z" fill="#3075EE"/>
<path d="M148.633 24.6034C151.362 24.6034 153.574 22.3911 153.574 19.6621C153.574 16.9331 151.362 14.7208 148.633 14.7208C145.904 14.7208 143.691 16.9331 143.691 19.6621C143.691 22.3911 145.904 24.6034 148.633 24.6034Z" fill="#5795F1"/>
<path d="M136.691 24.6034C139.42 24.6034 141.633 22.3911 141.633 19.6621C141.633 16.9331 139.42 14.7208 136.691 14.7208C133.962 14.7208 131.75 16.9331 131.75 19.6621C131.75 22.3911 133.962 24.6034 136.691 24.6034Z" fill="#205FEC"/>
<path fill-rule="evenodd" clip-rule="evenodd" d="M137.861 14.8601C139.651 15.2945 141.059 16.703 141.493 18.4923C139.729 18.0653 138.335 16.6911 137.88 14.9387L137.861 14.8601Z" fill="#134BEF"/>
<path fill-rule="evenodd" clip-rule="evenodd" d="M141.493 20.8321C141.059 22.6213 139.651 24.0296 137.861 24.464C138.288 22.6996 139.662 21.3061 141.415 20.8503L141.493 20.8321Z" fill="#0932E8"/>
<path fill-rule="evenodd" clip-rule="evenodd" d="M143.832 20.8309C145.621 21.2653 147.03 22.6737 147.464 24.463C145.7 24.036 144.306 22.6619 143.85 20.9095L143.832 20.8309Z" fill="#164BEA"/>
<path fill-rule="evenodd" clip-rule="evenodd" d="M147.464 14.8613C147.03 16.6505 145.621 18.0588 143.832 18.4933C144.259 16.7288 145.633 15.3353 147.385 14.8795L147.464 14.8613Z" fill="#3170F1"/>
<path d="M174.376 14.808C172.864 14.808 171.688 15.312 170.82 16.32C169.994 17.272 169.588 18.504 169.588 20.016C169.588 21.514 169.994 22.746 170.82 23.698C171.688 24.692 172.864 25.196 174.362 25.196C175.86 25.196 177.05 24.692 177.918 23.698C178.73 22.746 179.15 21.528 179.15 20.016C179.15 18.49 178.73 17.258 177.918 16.306C177.05 15.298 175.86 14.808 174.376 14.808ZM174.376 15.83C175.524 15.83 176.42 16.208 177.064 16.978C177.68 17.734 178.002 18.742 178.002 20.016C178.002 21.276 177.68 22.27 177.064 23.026C176.42 23.782 175.51 24.174 174.362 24.174C173.214 24.174 172.304 23.782 171.66 22.998C171.044 22.242 170.736 21.248 170.736 20.016C170.736 18.77 171.044 17.776 171.66 17.02C172.318 16.222 173.228 15.83 174.376 15.83ZM187.264 15.004L181.888 20.198V15.004H180.74V25H181.888V21.5L183.442 20.03L187.852 25H189.392L184.24 19.288L188.762 15.004H187.264ZM190.406 15.004V25H197.728V24.006H191.554V20.338H197.154V19.344H191.554V15.998H197.49V15.004H190.406ZM198.691 17.762L201.253 21.164L198.383 25H199.713L201.883 21.99L204.039 25H205.369L202.499 21.164L205.061 17.762H203.745L201.883 20.338L200.007 17.762H198.691ZM210.756 14.808C209.216 14.808 208.012 15.326 207.172 16.39C206.402 17.342 206.024 18.56 206.024 20.044C206.024 21.528 206.388 22.732 207.144 23.656C207.97 24.678 209.16 25.196 210.714 25.196C211.778 25.196 212.702 24.888 213.472 24.286C214.298 23.642 214.816 22.732 215.04 21.57H213.934C213.738 22.438 213.332 23.096 212.744 23.544C212.184 23.964 211.512 24.174 210.714 24.174C209.538 24.174 208.656 23.782 208.04 23.012C207.452 22.284 207.172 21.29 207.172 20.044C207.172 18.798 207.466 17.804 208.054 17.048C208.684 16.236 209.58 15.83 210.742 15.83C211.526 15.83 212.184 16.012 212.73 16.39C213.29 16.782 213.654 17.342 213.794 18.07H214.9C214.76 17.076 214.312 16.278 213.556 15.69C212.8 15.102 211.862 14.808 210.756 14.808ZM216.489 14.808V25H217.609V20.87C217.609 20.198 217.791 19.624 218.169 19.176C218.533 18.728 218.995 18.504 219.555 18.504C220.157 18.504 220.619 18.686 220.955 19.05C221.263 19.414 221.431 19.932 221.431 20.604V25H222.551V20.436C222.551 19.512 222.327 18.798 221.879 18.308C221.431 17.804 220.773 17.566 219.933 17.566C219.443 17.566 219.009 17.678 218.617 17.902C218.197 18.14 217.861 18.49 217.609 18.952V14.808H216.489ZM227.418 17.566C226.55 17.566 225.864 17.734 225.332 18.07C224.744 18.434 224.366 19.008 224.212 19.764L225.318 19.848C225.43 19.386 225.668 19.036 226.046 18.812C226.382 18.588 226.816 18.49 227.348 18.49C228.608 18.49 229.238 19.092 229.238 20.31V20.688L227.502 20.716C226.41 20.73 225.57 20.94 224.982 21.332C224.31 21.752 223.988 22.368 223.988 23.194C223.988 23.782 224.212 24.272 224.66 24.65C225.094 25.014 225.668 25.196 226.396 25.196C227.068 25.196 227.67 25.042 228.202 24.748C228.65 24.496 229.028 24.174 229.308 23.782V25H230.358V20.352C230.358 19.512 230.134 18.854 229.714 18.378C229.21 17.832 228.454 17.566 227.418 17.566ZM229.238 21.528V22.144C229.238 22.704 228.972 23.208 228.454 23.642C227.922 24.09 227.32 24.314 226.634 24.314C226.186 24.314 225.822 24.202 225.542 23.992C225.262 23.768 225.136 23.502 225.136 23.166C225.136 22.116 225.948 21.584 227.572 21.556L229.238 21.528ZM233.013 15.032C232.775 15.032 232.579 15.102 232.411 15.27C232.243 15.41 232.173 15.606 232.173 15.858C232.173 16.096 232.243 16.292 232.411 16.46C232.579 16.614 232.775 16.698 233.013 16.698C233.251 16.698 233.447 16.614 233.615 16.46C233.783 16.292 233.867 16.096 233.867 15.858C233.867 15.606 233.783 15.41 233.615 15.27C233.447 15.102 233.251 15.032 233.013 15.032ZM232.453 17.762V25H233.573V17.762H232.453ZM239.059 17.566C238.583 17.566 238.149 17.678 237.757 17.902C237.365 18.112 237.043 18.42 236.791 18.826V17.762H235.671V25H236.791V20.632C236.833 19.974 237.043 19.456 237.435 19.064C237.799 18.7 238.233 18.518 238.737 18.518C239.997 18.518 240.641 19.218 240.641 20.632V25H241.761V20.548C241.761 18.56 240.851 17.566 239.059 17.566Z" fill="white" fill-opacity="0.45"/>
<path d="M170.008 104.004V114H177.33V113.006H171.156V109.338H176.756V108.344H171.156V104.998H177.092V104.004H170.008ZM178.152 104.004V104.998H181.68V114H182.814V104.998H186.342V104.004H178.152ZM187.59 104.004V114H188.738V109.338H194.52V114H195.668V104.004H194.52V108.344H188.738V104.004H187.59Z" fill="white" fill-opacity="0.45"/>
<path d="M3.71613 41.2968H0V45.0129H3.71613V41.2968Z" fill="#F1F6FF"/>
<path d="M2.06445 48.3161C2.06445 47.16 2.06445 46.5819 2.28949 46.1401C2.48739 45.7516 2.80322 45.4357 3.19168 45.2379C3.63332 45.0129 4.21143 45.0129 5.36768 45.0129H49.9612C53.43 45.0129 55.1642 45.0129 56.4892 45.688C57.6544 46.2817 58.6021 47.2293 59.1958 48.3946C59.8709 49.7196 59.8709 51.4538 59.8709 54.9226V77.2193C59.8709 80.6881 59.8709 82.4223 59.1958 83.7473C58.6021 84.9125 57.6544 85.8602 56.4892 86.4539C55.1642 87.129 53.43 87.129 49.9612 87.129H5.36768C4.21143 87.129 3.63332 87.129 3.19168 86.904C2.80322 86.7062 2.48739 86.3903 2.28949 86.0018C2.06445 85.56 2.06445 84.9819 2.06445 83.8258V48.3161Z" fill="url(#paint0_linear)"/>
<path fill-rule="evenodd" clip-rule="evenodd" d="M0 41.2968C0 43.3493 1.66375 45.0129 3.71613 45.0129H50.7871C50.7871 43.8621 50.7871 43.2865 50.7107 42.8051C50.2912 40.1551 48.2126 38.0765 45.5626 37.657C45.0812 37.5806 44.5056 37.5806 43.3548 37.5806H3.71613C1.66375 37.5806 0 39.2442 0 41.2968Z" fill="#BCCDF5"/>
<path d="M45.1885 48.71C41.6772 57.8191 31.4747 62.368 22.4006 58.8703C10.435 54.2582 8.81654 45.1533 12.3276 36.0442C15.8387 26.9352 23.1498 21.2718 35.1153 25.8839C44.1897 29.3816 48.6994 39.6014 45.1885 48.71Z" fill="#F8983F"/>
<path d="M20.9724 58.3199C30.0466 61.8175 40.249 57.2686 43.7601 48.1596C47.2712 39.0506 42.7614 28.8308 33.6872 25.3331C24.6129 21.8355 14.4105 26.3844 10.8995 35.4934C7.38837 44.6025 11.8982 54.8222 20.9724 58.3199Z" fill="url(#paint1_linear)"/>
<path opacity="0.2" fill-rule="evenodd" clip-rule="evenodd" d="M34.3345 25.5974C34.1214 25.5053 33.9059 25.4174 33.6875 25.3331C27.7669 23.051 21.3655 24.1948 16.6563 27.7953L15.8829 28.4221C13.7313 30.2681 11.9919 32.6601 10.8998 35.4934C9.65123 38.7327 9.41695 42.1123 10.0416 45.2805L34.3345 25.5974ZM13.0776 52.2519C12.1339 50.9496 11.3735 49.5251 10.8154 48.0222L36.847 26.9302C38.2183 27.8072 39.4388 28.8577 40.4901 30.0411L13.0776 52.2519Z" fill="#FFFFD9"/>
<path fill-rule="evenodd" clip-rule="evenodd" d="M21.9968 55.6613C29.6097 58.5958 38.1675 54.7793 41.1124 47.139C44.0572 39.499 40.275 30.9259 32.6623 27.9914C25.0493 25.0569 16.4914 28.8738 13.5465 36.5137C10.6016 44.1541 14.3839 52.7272 21.9968 55.6613Z" stroke="url(#paint2_linear)" stroke-width="1.09069"/>
<path fill-rule="evenodd" clip-rule="evenodd" d="M0 45.0129V83.8258C0 84.9819 0 85.56 0.225032 86.0018C0.422937 86.3903 0.738766 86.7062 1.12723 86.904C1.56887 87.129 2.14697 87.129 3.30323 87.129H52.0258C55.4946 87.129 57.2288 87.129 58.5538 86.4539C59.719 85.8602 60.6666 84.9125 61.2604 83.7473C61.9355 82.4223 61.9355 80.6881 61.9355 77.2193V54.9226C61.9355 51.4538 61.9355 49.7196 61.2604 48.3946C60.6666 47.2293 59.719 46.2817 58.5538 45.688C57.2288 45.0129 55.4946 45.0129 52.0258 45.0129H0Z" fill="url(#paint3_linear)"/>
<path opacity="0.4" d="M3.71582 48.729H49.4985C52.5511 48.729 54.0772 48.729 55.2433 49.2848C56.2685 49.7741 57.1026 50.554 57.6249 51.514C58.219 52.6049 58.219 54.0332 58.219 56.89V75.2518C58.219 78.1087 58.219 79.537 57.6249 80.6278C57.1026 81.5878 56.2685 82.3678 55.2433 82.8571C54.0772 83.4129 52.5511 83.4129 49.4985 83.4129H3.71582" stroke="#B3C7F4" stroke-dasharray="2 2"/>
<path fill-rule="evenodd" clip-rule="evenodd" d="M33.0322 66.071C33.0322 62.6505 35.8053 59.8774 39.2258 59.8774H61.9355V57.8129H64V59.8774V70.2C64 71.34 63.0755 72.2645 61.9355 72.2645H39.2258C35.8053 72.2645 33.0322 69.4915 33.0322 66.071Z" fill="#BCCDF5"/>
<path opacity="0.8" d="M39 68C40.1046 68 41 67.1046 41 66C41 64.8954 40.1046 64 39 64C37.8954 64 37 64.8954 37 66C37 67.1046 37.8954 68 39 68Z" fill="white"/>
<path fill-rule="evenodd" clip-rule="evenodd" d="M61.9355 59.8774C62.2068 59.8774 62.4752 59.8242 62.7254 59.7201C62.9761 59.6165 63.2036 59.4645 63.3956 59.273C63.5872 59.081 63.7391 58.8534 63.8428 58.6028C63.9468 58.3526 64.0001 58.0842 64.0001 57.8129C64.0001 57.5417 63.9468 57.2733 63.8428 57.023C63.7391 56.7724 63.5872 56.5449 63.3956 56.3529C63.2036 56.1613 62.9761 56.0094 62.7254 55.9057C62.4752 55.8017 62.2068 55.7484 61.9355 55.7484V57.8129V59.8774Z" fill="#95A5CB"/>
<defs>
<linearGradient id="paint0_linear" x1="30.9677" y1="45.0129" x2="30.9677" y2="87.129" gradientUnits="userSpaceOnUse">
<stop stop-color="#577AE9"/>
<stop offset="1" stop-color="#4F74EF"/>
</linearGradient>
<linearGradient id="paint1_linear" x1="25.9761" y1="24.2144" x2="21.0857" y2="58.3363" gradientUnits="userSpaceOnUse">
<stop stop-color="#FFD98C"/>
<stop offset="1" stop-color="#FFB359"/>
</linearGradient>
<linearGradient id="paint2_linear" x1="27.5908" y1="27.308" x2="30.3843" y2="55.9331" gradientUnits="userSpaceOnUse">
<stop stop-color="#FFC55A"/>
<stop offset="1" stop-color="#F49B4A"/>
</linearGradient>
<linearGradient id="paint3_linear" x1="0.752693" y1="57.007" x2="24.566" y2="84.5377" gradientUnits="userSpaceOnUse">
<stop stop-color="#F2F6FF"/>
<stop offset="1" stop-color="#E1EAFF"/>
</linearGradient>
</defs>
</svg>
